<svg id="facebook" xmlns="http://www.w3.org/2000/svg" viewBox="0 0 56.042 76.386">
  <defs>
    <style>
      .cls-1 {
        fill: #395398;
      }

      .cls-1, .cls-2, .cls-3, .cls-4, .cls-5 {
        fill-rule: evenodd;
      }

      .cls-2 {
        fill: #415fa3;
      }

      .cls-3 {
        fill: #6994d1;
      }

      .cls-4 {
        fill: #5479ba;
      }

      .cls-5 {
        fill: #36568e;
      }

      .cls-6 {
        fill: #fff;
      }
    </style>
  </defs>
  <path id="Path_3069" data-name="Path 3069" class="cls-1" d="M316.53,169.024c7.505,11.742,6.687,15.781-5.869,28.91-4,.278-7.586,4.305-11.952,1.338-1.169-6.7,3.6-11.045,7.377-16.97-9.053-2.015-18.087-2.955-24.064-10.3-3.458-2.769-5.43-5.708-3.366-10.565,1.568-3.688,2.189-7.828,2.971-11.831l-.024.044c5.68-5.083,11.552-6.256,17.9-1.1a12.1,12.1,0,0,0,6.183,2.286c11.468,1.572,12.975,3.793,10.67,15.483A3.81,3.81,0,0,0,316.53,169.024Z" transform="translate(-269.299 -142.673)"/>
  <path id="Path_3070" data-name="Path 3070" class="cls-2" d="M270.545,156.11c.077,4.39,1.072,8.973-1.5,12.947-3.092,4.785,3.063,5.333,3.567,8.4,3.273,5.139,6.941,9.8,12.375,13,3.531,2.072,5.494,5.313,3.757,9.706-3.2,2.616-6.337.951-8.509-1.072-5.841-5.442-13.173-8.679-19.231-13.741a25.557,25.557,0,0,1-1.753-2.144C260.548,173.145,266.506,165.026,270.545,156.11Z" transform="translate(-258.217 -149.176)"/>
  <path id="Path_3071" data-name="Path 3071" class="cls-2" d="M322.138,165.259c-2.2-1.4-.891-3.132-.726-4.962.589-6.449.46-12.5-9.082-10.561-2.35.472-5.333.838-7.115-1.447-5.289-6.784-11.383-6.252-18.006-2.419,3.656-3.874,23.174-8.525,27.128-6.449C323.464,144.186,325.745,151.736,322.138,165.259Z" transform="translate(-274.907 -138.909)"/>
  <path id="Path_3072" data-name="Path 3072" class="cls-3" d="M257.72,223.33c.6,0,1.209,0,1.814.036,1.064,1.975,2.959,3.438,3.66,5.615,2.487,7.695,7.88,11.286,15.813,11.6,2.576.093,5.135.508,6.973,2.672.181.427.359.859.536,1.29,3.837,3.317,7.7-1.584,11.532.02-4.922,3.43-9.948,5.6-15.749,1.79-1.83-1.209-3.733-1-4.861,1.137-4.164,7.888-9.065,3.39-11.956-.278C260.131,240.417,254.27,233.218,257.72,223.33Z" transform="translate(-256.688 -189.301)"/>
  <path id="Path_3073" data-name="Path 3073" class="cls-4" d="M307.13,310.633c.133-1.943.943-3.285,2.822-3.059,2.668.322,3.547,2.519,3.386,4.748-.121,1.7-.75,4.249-3.225,3.5C307.916,315.151,307.481,312.62,307.13,310.633Z" transform="translate(-286.797 -239.572)"/>
  <path id="Path_3074" data-name="Path 3074" class="cls-4" d="M382.02,264.34a3.753,3.753,0,0,1,3.285,3.978c-.02,2.394-1.641,3.184-3.761,3.035s-3.555-1.286-3.225-3.6A3.657,3.657,0,0,1,382.02,264.34Z" transform="translate(-329.263 -213.78)"/>
  <path id="Path_3075" data-name="Path 3075" class="cls-3" d="M262.236,290.022c-.222-1.52.6-1.963,1.52-1.741a2.938,2.938,0,0,1,1.919,1.419,1.182,1.182,0,0,1-1.483,1.568A6.628,6.628,0,0,1,262.236,290.022Z" transform="translate(-259.978 -228.039)"/>
  <path id="Path_3076" data-name="Path 3076" class="cls-5" d="M307.81,232.2c.367-3.914-.967-7.594-4.6-8.674-7.485-2.229-9.009-8.3-10.811-14.447,5.708,4.97,12,8.328,19.9,7.759,2.6-.185,5.43.1,6.2,3.225.7,2.822-1.846,3.773-3.753,4.837-4.357,2.463-3.7,7.989-6.917,11.133l-.048.036C306.75,234.777,306.6,233.483,307.81,232.2Z" transform="translate(-278.005 -180.795)"/>
  <path id="Path_3077" data-name="Path 3077" class="cls-4" d="M290.709,240.761q0,1.939-.024,3.87c-1.79-.629-3.539-1.612-5.377-1.838-17.006-2.136-17.01-2.1-21.557-19.372Z" transform="translate(-260.903 -189.355)"/>
  <path id="Path_3078" data-name="Path 3078" class="cls-6" d="M321.107,223.976V204.769h6.449l.963-7.485h-7.413v-4.777c0-2.169.6-3.628,3.712-3.628h3.962v-6.715a53.764,53.764,0,0,0-5.776-.294c-5.716,0-9.626,3.491-9.626,9.9v5.518H306.93v7.485h6.449v19.207Z" transform="translate(-286.678 -164.553)"/>
</svg>
