<svg id="insta" xmlns="http://www.w3.org/2000/svg" viewBox="0 0 67.44 61.639">
  <defs>
    <style>
      .cls-1 {
        fill: #b02a9e;
      }

      .cls-1, .cls-2, .cls-3, .cls-4, .cls-5, .cls-6, .cls-7, .cls-8 {
        fill-rule: evenodd;
      }

      .cls-2 {
        fill: #972aab;
      }

      .cls-3 {
        fill: #f04471;
      }

      .cls-4 {
        fill: #cf2a8c;
      }

      .cls-5 {
        fill: #9f2aa6;
      }

      .cls-6 {
        fill: #b52a9b;
      }

      .cls-7 {
        fill: #f38259;
      }

      .cls-8 {
        fill: #f5ab4a;
      }

      .cls-9 {
        fill: #fff;
      }
    </style>
  </defs>
  <path id="Path_3106" data-name="Path 3106" class="cls-1" d="M84.155,172.947c-3.6-6.772-2.636-10.174,5.6-13.451s44.453-2.789,41.792,0,.548,1.935-.4,2.729c-2.822,1.782-5.966,1.665-9.1,1.733-7.256.089-14.487,0-21.735.048-5.5.04-9.835,1.85-12.343,7.022C87,172.262,85.876,173.209,84.155,172.947Z" transform="translate(-78.492 -157.217)"/>
  <path id="Path_3107" data-name="Path 3107" class="cls-2" d="M195.921,165.885V163.99h1.9c1.512,2.693,4.623,1.274,6.631,2.56,2.5,1.612,1.846,2.729-.806,3.225-1.753,1.5-.576,4.031-1.991,5.643v3.716c-5.192.113-6.224-4.482-8.586-7.582C192.3,168.831,193.8,167.191,195.921,165.885Z" transform="translate(-144.568 -161.26)"/>
  <path id="Path_3108" data-name="Path 3108" class="cls-3" d="M81.506,183.208l2.015-2.076c7.88-8.916,19.074-7.2,27.632-4.785,8.465,2.394,16.684,8.042,24.794,12.665,4.434,4.406,5.006,9.489,2.612,15.076a3.876,3.876,0,0,1-2.076,3.628c-1.878,1.987-1.52,4.857-2.781,7.09-2.854,3.015-7.546,4.551-10.222,3-7.381-4.289-9.5-.113-11.573,5.434-14.455,7.409-13.56,6.228-25.2-5.962C76.093,206.176,75.609,195.724,81.506,183.208Z" transform="translate(-75.844 -167.479)"/>
  <path id="Path_3109" data-name="Path 3109" class="cls-4" d="M143.184,186.485c-2.346.451-2.14-8.824-6.808-1.467-1.8,2.822-3.729-1.612-5.369-3.128-10.291-9.525-27.712-11.73-38.946-4.918,1.358-6.937,5.752-9.71,12.6-9.525,7.755.214,15.519.157,23.282.222,2.5,1.891,3.841,5.4,7.659,5.446,3.793,1.306,4.623,5.551,7.614,7.659l1.975,1.818C146.348,184.82,144.51,185.518,143.184,186.485Z" transform="translate(-84.398 -163.318)"/>
  <path id="Path_3110" data-name="Path 3110" class="cls-4" d="M155.413,275.3c2.785-5.168-3.761-3.068-4.773-6.405a19.114,19.114,0,0,0,15.571-7.236c3.422,3.168-.443,4.587.169,7.143,3.733.584,6.853-1.108,9.831-3.225,3.551-.238,3.072,1.612,1.935,3.765Z" transform="translate(-119.365 -219.56)"/>
  <path id="Path_3111" data-name="Path 3111" class="cls-5" d="M218.89,208.912c.669-1.306,1.33-2.6,2.015-3.9,5.164,5.28,10.948,10.48,1.911,17.333C221.587,217.844,223.03,212.568,218.89,208.912Z" transform="translate(-160.105 -185.745)"/>
  <path id="Path_3112" data-name="Path 3112" class="cls-5" d="M216.015,266.555c-.121-1.524-.375-2.979-1.935-3.765,0-2.741,1.028-4.837,3.781-5.8C215.809,259.9,223.053,264.6,216.015,266.555Z" transform="translate(-157.234 -216.773)"/>
  <path id="Path_3113" data-name="Path 3113" class="cls-1" d="M212.464,183.383c-1.032-2.483-3.563-6.474,1.681-6.744,2.648-.955,4.321,5.623,4.321,5.623S213.314,186,212.464,183.383Z" transform="translate(-155.359 -168.754)"/>
  <path id="Path_3114" data-name="Path 3114" class="cls-6" d="M188.713,173.181A20.236,20.236,0,0,1,187.028,176c-3.628-1.512-6.208-3.922-5.962-8.279l9.517-.173Q189.648,170.376,188.713,173.181Z" transform="translate(-137.517 -163.385)"/>
  <path id="Path_3115" data-name="Path 3115" class="cls-7" d="M86.37,246.709l-1.806-.556c-7.55-1.975-9.856-9.037-10.972-14.765-1.1-5.643-.226-12.141.085-18.26,1.262-3.91,4.075-5.736,8.062-5.986a2.52,2.52,0,0,1,2.729.145c1.717.512,3.289-.544,4.97-.468,2.608.782,4.9,3.076,4.781,5.1-.331,5.591,2.741,5.595,6.6,5.168,8.618,6.26,7.659,6.083,3.97,16.507C101.421,243.085,95.443,246.459,86.37,246.709Z" transform="translate(-73.053 -186.821)"/>
  <path id="Path_3116" data-name="Path 3116" class="cls-8" d="M81.832,268.829c-1.125-.093-2.245-.2-3.362-.318.109-1.129.214-2.245.322-3.374,5.043-2.229,3.047-8,5.667-11.339,3.285-4.176,5.168-2.822,5.643,1.943,2.362,3.366,7.062,1.709,9.694,4.494l6.6.649c-.677,9.247-9.017,10.295-14.914,13.963C86.423,275.77,83.795,272.823,81.832,268.829Z" transform="translate(-76.286 -213.378)"/>
  <path id="Path_3117" data-name="Path 3117" class="cls-9" d="M127.116,218.984h-15.93A12.838,12.838,0,0,1,98.36,206.162v-14.04A12.838,12.838,0,0,1,111.186,179.3h15.93a12.838,12.838,0,0,1,12.822,12.822v14.04A12.838,12.838,0,0,1,127.116,218.984Zm-15.93-36.834a9.985,9.985,0,0,0-9.976,9.972v14.04a9.984,9.984,0,0,0,9.976,9.972h15.93a9.98,9.98,0,0,0,9.972-9.972v-14.04a9.985,9.985,0,0,0-9.972-9.972Z" transform="translate(-88.159 -170.399)"/>
  <path id="Path_3118" data-name="Path 3118" class="cls-9" d="M133.035,223.041a11.415,11.415,0,1,1,11.415-11.415A11.415,11.415,0,0,1,133.035,223.041Zm0-19.981a8.566,8.566,0,1,0,8.566,8.566A8.566,8.566,0,0,0,133.035,203.06Z" transform="translate(-102.043 -182.88)"/>
  <path id="Path_3119" data-name="Path 3119" class="cls-9" d="M176.68,197.57a2.37,2.37,0,1,1-2.37-2.37A2.37,2.37,0,0,1,176.68,197.57Z" transform="translate(-132.08 -179.89)"/>
</svg>
