<svg id="twitter" xmlns="http://www.w3.org/2000/svg" viewBox="0 0 56.048 61.029">
  <defs>
    <style>
      .cls-1 {
        fill: #6fc1ef;
      }

      .cls-1, .cls-2, .cls-3, .cls-4, .cls-5, .cls-6, .cls-7 {
        fill-rule: evenodd;
      }

      .cls-2 {
        fill: #7bc5f8;
      }

      .cls-3 {
        fill: #c2ecff;
      }

      .cls-4 {
        fill: #9cdcff;
      }

      .cls-5 {
        fill: #e1f7ff;
      }

      .cls-6 {
        fill: #60a7c6;
      }

      .cls-7 {
        fill: #afe5f9;
      }

      .cls-8 {
        fill: #fff;
      }
    </style>
  </defs>
  <path id="Path_3079" data-name="Path 3079" class="cls-1" d="M438.514,227.746c-3.479-4.934-11.94-3-13.874-10.077-.806-1.209-2.116-1.923-2.866-3.18-1.149-1.943-1.58-4.1.54-5.313,2.987-1.717,4.748-.242,5.293,2.878.677-2.822-.447-5.5-1.294-8.223-2.721-8.739,2.85-21.336,11.246-25.31a2.9,2.9,0,0,1,2.459.4c3.265,4.434-.451,8.09-1.366,12.056-1.016,4.386-3.354,9.1,2.681,11.831a11.876,11.876,0,0,0,15.531-5.24c2.822-5.776-.806-9.138-4.837-12.238-3.628-2.8-8.916-2.564-11.976-6.449.806-5.365,4.728-4.97,8.505-4.406,11.758,1.766,20.388,13.3,19.3,25.681-.734,8.425-12.161,16-24.685,16.168,3.523,2.556,6.421,5.24,4.257,9.964C444.581,227.517,441.92,229.943,438.514,227.746Z" transform="translate(-418.328 -167.636)"/>
  <path id="Path_3080" data-name="Path 3080" class="cls-2" d="M443.509,220.636c-.6-6.728-4.942-9.162-11.133-9.082.343-3.833,2.886-3.084,4.478-2.515a15.618,15.618,0,0,0,12.435-1.286c5.909-3.225,14.068-6.046,12.754-15.237-2.052-14.326-9.186-21.714-19.953-21.851a5.462,5.462,0,0,0-5.482,3.39h0c-10.114,5.2-14.447,15.245-10.932,25.254a8.815,8.815,0,0,1,.492,2.5c.077,1.693.024,3.39.024,4.962-3.245,1.645-4.458-3.978-6.691-1.943-2.846,2.584,1.395,4.93,1.451,7.614-7.163-1.919-7.223-6.736-5.087-12.455a25.513,25.513,0,0,0,3.527-15.559l1.294-1.858c4.152-3.293,4.3-8.989,7.626-12.79,6.1-3.608,13.185-4.224,19.751-4.39,7.256-.181,11.847,5.978,16.011,11.532,3.769,8.949,6.752,17.966,2.044,27.551-6.147,5.575-12.971,10.339-19.4,15.579C445.754,220.761,444.763,221.434,443.509,220.636Z" transform="translate(-414.64 -162.391)"/>
  <path id="Path_3081" data-name="Path 3081" class="cls-3" d="M494.22,203.533c5.6-3.894,1.741-9.223,1.657-13.733-.077-4.087-2.209-8.138-3.434-12.21-1.048-3.914-3.628-7.614-1.713-11.948,1.149-.048,2.3-.089,3.459-.133,4.075,5.688,2.2,13.008,5.216,18.985,3.293,8.61-1.27,17.071-.572,25.677.161,2.084-3.031,2.193-4.8,2.878-3.41,1.314-6.631,2.092-8.062,6.514-1.108,3.386-16.994,5.123-21.194,3.015l8.678-1.866,1.766-1.612C482.6,216.126,487.359,212.212,494.22,203.533Z" transform="translate(-444.563 -162.469)"/>
  <path id="Path_3082" data-name="Path 3082" class="cls-4" d="M479.258,161.139c2.487,3.7,1.58,7.9,1.713,11.948-7.3-8.332-15-14.914-26.975-7.941-2.015,1.185-5.014.738-7.554,1.044l-.709-.742a2.18,2.18,0,0,1,.721-2.7c3.225-3.459,6.736-5.736,11.561-2.862,2.576,1.536,4.873-.04,7.381-.544C470.088,158.411,475.243,156.016,479.258,161.139Z" transform="translate(-433.092 -157.965)"/>
  <path id="Path_3083" data-name="Path 3083" class="cls-5" d="M542.966,184.471c-5.063-5.414-4.716-12.318-5.216-18.986,5.357-.254,6.659,2.459,5.885,7.364C543.035,176.663,543.163,180.6,542.966,184.471Z" transform="translate(-488.126 -162.445)"/>
  <path id="Path_3084" data-name="Path 3084" class="cls-4" d="M420.108,212.62c2.789,7.941,1.423,13.979-3.527,15.559C413.86,222.109,419.447,217.925,420.108,212.62Z" transform="translate(-415.355 -190.589)"/>
  <path id="Path_3085" data-name="Path 3085" class="cls-4" d="M436.944,177.855c-.58,5.115-1.512,10.017-7.3,11.948.1-3.85,2.233-6.945,3.8-10.255.979-.9,1.475-2.729,3.414-1.77Z" transform="translate(-423.594 -169.63)"/>
  <path id="Path_3086" data-name="Path 3086" class="cls-3" d="M442.474,173.2l-3.414,1.77c.02-2.5-.1-5.1,3.515-5.131C442.543,170.961,442.506,172.081,442.474,173.2Z" transform="translate(-429.216 -165.053)"/>
  <path id="Path_3087" data-name="Path 3087" class="cls-6" d="M460.878,186.9c4.132-.06,7.876,1.467,11.444,3.225,7.739,3.825,10.654,10.775,7.2,16.458-4.6,7.566-15.209,10.408-21.541,5.188-4.144-3.41-2.56-8.4-1.294-12.774,1.185-4.1,2.781-8.062,4.2-12.093Z" transform="translate(-438.91 -175.234)"/>
  <path id="Path_3088" data-name="Path 3088" class="cls-7" d="M509.662,259.84c-4.261,7.723-8.8,15.1-19.022,15.579Q500.157,267.632,509.662,259.84Z" transform="translate(-460.005 -218.775)"/>
  <path id="Path_3089" data-name="Path 3089" class="cls-8" d="M475.967,206.03a4.708,4.708,0,0,1-1.358.177l.024-.145c.709-.564,2.491-2.3,2.725-3.116.1-.351,0-.472,0-.484l-2.277.967-1.935.855h0A7.586,7.586,0,0,0,467.619,202c-3.962,0-7.175,2.822-7.175,6.268a9.372,9.372,0,0,0,.294,2.366h0a22.4,22.4,0,0,1-8.731-2.592c-5.744-2.91-6.1-4.926-6.1-4.926-.9.959-1.367,4.132-.456,6.619a8.068,8.068,0,0,0,2.6,3.019h0a6.115,6.115,0,0,1-1.842-.3,4.135,4.135,0,0,1-1.3-.633c-.556,1.366.564,3.805,2.511,5.559a10.28,10.28,0,0,0,3.2,1.661l-3.225.089c-.181,3.144,6.586,5.01,6.586,5.01h0a11.068,11.068,0,0,1-6.76,2.451,12.858,12.858,0,0,1-3.688-.544,17.581,17.581,0,0,0,12,4.3c12.093-.637,18.913-11.029,19.239-21.231h0a8.406,8.406,0,0,0,1.778-1.5,12.438,12.438,0,0,0,1.967-2.628S476.716,205.812,475.967,206.03Z" transform="translate(-431.885 -184.249)"/>
  <path id="Path_3090" data-name="Path 3090" class="cls-8" d="M527.39,203.13Z" transform="translate(-481.942 -184.925)"/>
</svg>
