<svg id="Layer_1" data-name="Layer 1" xmlns="http://www.w3.org/2000/svg" viewBox="0 0 1366 676"><defs><style>.cls-1{fill:#c802de;}.cls-2{fill:#cd39e2;}.cls-3{fill:#9807ad;}</style></defs><title>stylek_new_2</title><rect id="bg" class="cls-1" width="1366" height="2"/><path id="shape1" class="cls-1" d="M1058,0H482.2Q482,3,482,6a90.5,90.5,0,0,0,12.28,45.67A249.36,249.36,0,0,1,525.73,193.9q-.72,9-.73,18.1a223.67,223.67,0,0,0,90.73,180.05A279.22,279.22,0,0,1,711.7,522,171.16,171.16,0,0,0,898.63,637.23a244.12,244.12,0,0,1,139.28,22,155.31,155.31,0,0,0,137.65,1.26,225.45,225.45,0,0,1,129-17.73,88.13,88.13,0,0,0,61.45-12.4V0Z"/><path id="shape2" class="cls-2" d="M1067.92,0H510.66q-.2,2.88-.2,5.81A87.59,87.59,0,0,0,522.35,50a241.39,241.39,0,0,1,30.43,137.65q-.69,8.67-.7,17.51a216.44,216.44,0,0,0,87.8,174.25,270.17,270.17,0,0,1,92.88,125.74A165.57,165.57,0,0,0,889.84,618.43a167.34,167.34,0,0,0,23.84-1.72,236.31,236.31,0,0,1,134.79,21.34,150.24,150.24,0,0,0,133.22,1.22,218.21,218.21,0,0,1,124.84-17.15,85.91,85.91,0,0,0,14,1.15A84.77,84.77,0,0,0,1366,610.11V0Z"/><path id="girl1" class="cls-3" d="M1098.63,409.12s-8.87-.77-5.59,24.3c0,0-1.54,18.32-1.74,19.1,0,0-4,7.52-5.78,11,0,0-1.74,11.57-2.32,16.78a14.65,14.65,0,0,1-4.43,5s-3.09,2.12-2.12,4.24c0,0,1.54,4.25,1.35,6.56,0,0,.38,3.09,8.67,2.7,0,0,6,0-2.12-6.56,0,0,2.32,1,2.51-1a4.8,4.8,0,0,1,1-4s1.35-1.35.19-4.44c0,0,7.71-12.72,9.64-16,0,0,2.7-1.55,1.74-10.42,0,0,3.66-17.35,3.08-22.75,0,0,4.63,13.69,5.21,19.28,0,0,1.16,7.33-2.51,13.69,0,0-10,21-5.2,34.91,0,0,4.24,28.93,10.6,38.76,0,0,0,7,1.93,9.65,0,0-1.93,18.51,3.47,27.19,0,0-3.28,33.94-1.15,39.92a38.43,38.43,0,0,0-5,21.22s-5,9.06-3.28,14.07c0,0,3.47,4.05,13.69,1.93,0,0,2.9-9.83,1.55-19.48,0,0-.2-.38,1.35-1.54,0,0,6.17,1.74,9.64-1.35,0,0-.58-17.16-.38-21.6,0,0,.19-10.8-3.48-14.08,0,0,5.79-10.6,4.25-29.12a55.21,55.21,0,0,0,2.7-12.53s22.17-33.17,16.58-70.59c0,0-3.08-16.39-5-22,0,0-3.28-4.44,1-17.75,0,0,1,13.12,1,16.59,0,0,9.64,25.07,10.6,31.05,0,0,.58,8.29,2.12,11.38,0,0,1.74,5.4,1.74,8.48,0,0,1.54,5.21,4.63,5,0,0,1.35-.58,2.51-3.86a8,8,0,0,1,0,3.09s1.15,1.73,1.92-.58c0,0,1.93-6.56.58-11.19,0,0-4.82-6.36-5.78-10.61,0,0-3.86-18.9-4.63-26.8,0,0,0-8.29-3.67-12.73,0,0-1-12.73-1.15-15.82,0,0,6.55-27-1.16-27.38,0,0,.77-1.74-2.12-2.51,0,0,2.12-10.22-4.82-13.88,0,0-.39-3.09-2.12-3.86a13.7,13.7,0,0,0,1.54-5.21s5.59-.19,3.66,5.6c0,0,7.33-5.79-3.08-18.13,0,0-7.91-21.41-21.22-17.36l-.77,1s-10-3.08-17.55,8.49c0,0-5,2.89-4.82,12,0,0,.19,3.47-3.28,7.71,0,0,5.59-3.86,7.14-7.33,0,0-8.68,10-8.1,14.47,0,0-5.6.57-7,7.52,0,0,2.32-7.33,9.84-7C1104.61,392.34,1094.2,401.22,1098.63,409.12Z"/><path id="girl2" class="cls-3" d="M1309.29,617.84s-5.43-.64-6.87-2.72c0,0-2.72-12.79-3.36-14.07,0,0-5.75-25.74-6.23-27,0,0-2.56-24.46-4.64-28.62,0,0-2.56-5.11-2.72-7.19,0,0-.48-8.31-1.6-12.15,0,0-3-13.11-3-16.79,0,0-4.32-27.82-6.4-33.09a49.82,49.82,0,0,0,2.88-8.32s1.76-9.11.8-15.67c0,0-3.68-22.22-6.08-27.34,0,0,.48-15.66-.16-19.66,0,0,9-5.92-.16-17.11,0,0,.48-2.72-2.4-9.27a39.93,39.93,0,0,0-4.7-6.05,11.16,11.16,0,0,0,4.22.77s3.52.32,5.6-1.76c0,0-6.72,2.88-12.15-4a12.52,12.52,0,0,0,2.08-5.92l.16-2.88a5.16,5.16,0,0,0,5.11-3.67,7,7,0,0,1-9.27.31s.64-10.07-4.48-17.42-9.59-11-18.06-8.32c0,0-7-1-10.56,11.28l-6,10.79a14.42,14.42,0,0,0-4.08,9.11s.24-2.64,3.84-5.75a27.5,27.5,0,0,1-4.32,11s-6.23,5.27-6.71,10.79c0,0-2.16,4.08,4.07,13.19,0,0,9.36,10.55,13.68,17a27.26,27.26,0,0,0,3.11,6,21.09,21.09,0,0,1,3.36,8.64s-1.2,11.51-5,18.7c0,0-4.79,7.44-6.23,11.75,0,0-5.28,7.68-6.24,16.31,0,0-.24,20.63.48,29,0,0,1,13.19,2.64,18.94,0,0,1.44,10.56-.48,18,0,0-4.8,12-3.12,23a168.19,168.19,0,0,0,3.12,22.78s3.6,12.71,3.12,19.18c0,0-3.84,6-3.12,7.92a33.36,33.36,0,0,0,2.16,5.51,24.07,24.07,0,0,1,1.68,6.72l-.24,4.08,1.44.48.48-8.16s1-2.16,3.35.72a14.79,14.79,0,0,0,1.68,6s.72,3.59,6.24,3.83l10.79-2.39c.24.72.48-1.68-1.92-3.36,0,0-2.88.72-6.47-4.8,0,0-5.76-6.71-6.72-13.19,0,0-1-1.2-1-8.87,0,0,1.68-25.42.48-35.5,0,0,1.68-14.15,1.92-19.18,0,0,3.12-10.55,3.36-16.07a95.3,95.3,0,0,0,4.07-18.23s4.08-25.18,3.36-28.29c0,0,2.4,1.91,3.84,1.91,0,0,5,12.71,8.15,21.11,0,0,7,15.83,9.36,21.58,0,0,1.44,9.83,5,14.39,0,0,2.16,3.6,2.88,12.47,0,0-.24,7,5.76,17,0,0,7.43,15.35,8.39,21.34,0,0,1,6.72-.72,11.28,0,0-2.64,4.07-2.16,7.91,0,0,3.12,7.19,3.12,13.19l1.68.48.72-9.83s2.64-1.92,4.32,2.15c0,0,.71,5.52,2.39,8.16,0,0,0,2.08,5.12,1.92,0,0,5.27-.32,7.35-1.12C1309.29,620.88,1311.05,618.64,1309.29,617.84Zm-40.93-159.08c-.95-.32-1.92-2.88-1.92-2.88a16,16,0,0,1-.63-2.72c.63-2.07,3.67-12,3.67-12C1270.44,449.49,1268.36,458.76,1268.36,458.76Z"/><path id="girl3" class="cls-3" d="M1027.48,406.32s-13.57-18.28-18.27-21.05c0,0-5.82-12.46-13-15.51,0,0,8-3.05,6.65-10.25,0,0-2.22-5-4.44-5.26,0,0,2.5-9.14-1.93-12.74,0,0-3.88-2.49-4.43-3.32,0,0,3.87-.28,4.7-2.77,0,0-4.15,1.66-5.81-1.38,0,0,3.6.55,2.21-4.16a17.27,17.27,0,0,0-4.7-3.6,25.89,25.89,0,0,0,2.77-3.6,57.64,57.64,0,0,1-6.65-2.77s1.11-.83,1.11-3.6c0,0-16.07-10.24-25.48-4.43a18.69,18.69,0,0,0-14.13,5.54A25.91,25.91,0,0,1,943.3,326a6,6,0,0,0-4.44,5.81,14.07,14.07,0,0,1-3.32,5.82,9.23,9.23,0,0,0,5.86-1.76c-1,.82-5,4.26-6.41,8.13,0,0,6.09-2.5,5.26.83a12.73,12.73,0,0,1-6.37,5.26l5.26.28s-7.75,4.7-8,6.64c0,0-3.88,5-.83,8.59,0,0-7.75,20.49-4.15,42.37,0,0-3,17.44-2.5,27.14,0,0,2.5,18,2.77,21,0,0-2.21,1.39-2.49,2.77,0,0,.55,8.31,1.94,10.25l.55,4.71,2.22,2.49s-1.66,1.38-.56,5.26l1.94,3.05s-6.64,11.63-6.37,16.61l-.55,10s-5,7.76-2.77,13.57c0,0-4.43,10-3.6,18.28,0,0,.28,28.8.55,32.68,0,0,0,6.84-1,10.28a6.19,6.19,0,0,1-.4,1.07,21.1,21.1,0,0,0-2.49,11.08s-1.94,7.75-5,10c0,0-1.38,4.71,1.11,8.31A13.64,13.64,0,0,0,922,615.12a33.37,33.37,0,0,0,.28-8.58s1.38-3,1.94-4.43l.27,6.09,2.22.55s.83-9.69,1.11-11.07c0,0,6.64-8.31.83-14.13a6.77,6.77,0,0,1-1.39-6.09s4.43-16.06,5.82-18.55a46.91,46.91,0,0,0,2.49-20.22s-.83-7.2,1.39-10.25c0,0,4.15-5.54,5.54-11.07,0,0,8.58-17.73,11.35-20.5,0,0,10-22.43,10.8-24.37l5.54,1.11s4.43,14.68,4.7,18.28c0,0,3.88,21.88,5.27,25.48,0,0-.28,9.41,1.66,12.18,0,0,.83,12.19-.28,19.94,0,0,1.66,18.28,1.66,23.26a44.08,44.08,0,0,1-3.6,9.42s0,3.6-.27,6.64c0,0-2.22,11.64-2.77,15.51a16,16,0,0,0-3,6.37s.56,6.37,1.38,7.48c0,0,9.14,2.22,12.47-3.6l2.77-5a38.24,38.24,0,0,0,.55-7.48,27.92,27.92,0,0,1,.56-7.48s2.76-5.82.83-10.25a11.51,11.51,0,0,1-1.11-6.64s5.26-17.17,6.64-21.6c0,0,4.71-18.28,1.94-28.25,0,0-2.77-11.63-2.49-15.51,0,0,4.15-32.68,4.15-35.17,0,0,3.88-16.34-6.37-36.55,0,0,6.1,2.76,8-2.22,0,0,3.87,1.66,4.7-3.05,0,0,15.51-16.06,18.56-21C1026.1,414.35,1031.91,410.19,1027.48,406.32ZM938,462.81c-.27-9.69-4.43-6.92-4.43-6.92-.83-3.6,1.11-26.31,1.11-26.31,1.11-4.16,3-19.94,3-19.94l3.32,10c-.55,2.77-3.05,10.52-3.05,10.52-.27,5.82,4.16,23,4.16,23C941.36,455.89,938,462.81,938,462.81Zm63.7-36.67c-4.71-.56-3.88,4.86-3.88,4.86h-3.6c-2.49-3.77-1.4-1.11-5.55-5.26-.25-.24-.49-1-.71-1.26-3.56-4.47-4.33-13.21-4.33-13.21-.56-5.26,8-21.34,8-21.34,1.52-4.29,6.51,2.86,6.51,2.86,3.6,2.22,16.34,18.61,16.34,18.61Z"/></svg>