<svg id="Layer_1" data-name="Layer 1" xmlns="http://www.w3.org/2000/svg" viewBox="0 0 1366 676"><defs><style>.cls-1{fill:#c802de;}.cls-2{fill:#cd39e2;}.cls-3{fill:#fff;}</style></defs><title>landing_bg</title><rect id="bg" class="cls-1" width="1366" height="2"/><path id="shape1" class="cls-1" d="M1058,0H482.2Q482,3,482,6a90.5,90.5,0,0,0,12.28,45.67A249.36,249.36,0,0,1,525.73,193.9q-.72,9-.73,18.1a223.67,223.67,0,0,0,90.73,180.05A279.22,279.22,0,0,1,711.7,522,171.16,171.16,0,0,0,898.63,637.23a244.12,244.12,0,0,1,139.28,22,155.31,155.31,0,0,0,137.65,1.26,225.45,225.45,0,0,1,129-17.73,88.13,88.13,0,0,0,61.45-12.4V0Z"/><path id="shape2" class="cls-2" d="M1067.92,0H510.66q-.2,2.88-.2,5.81A87.59,87.59,0,0,0,522.35,50a241.39,241.39,0,0,1,30.43,137.65q-.69,8.67-.7,17.51a216.44,216.44,0,0,0,87.8,174.25,270.17,270.17,0,0,1,92.88,125.74A165.57,165.57,0,0,0,889.84,618.43a167.34,167.34,0,0,0,23.84-1.72,236.31,236.31,0,0,1,134.79,21.34,150.24,150.24,0,0,0,133.22,1.22,218.21,218.21,0,0,1,124.84-17.15,85.91,85.91,0,0,0,14,1.15A84.77,84.77,0,0,0,1366,610.11V0Z"/><path id="girl" class="cls-3" d="M1181.63,432.52c-2.35-7.45-5.49-21.94-5.49-21.94-1.57-5.49-5.48-22.73-5.48-22.73a74.76,74.76,0,0,0-8.23-32.51c-2.35-4.7-3.92-22.34-3.92-22.34-2-14.1,1.57-41.13,1.57-41.13,1.17-10.58-2.35-10.58-2.35-10.58,1.56-9-10.58-22.33-10.58-22.33a45.77,45.77,0,0,0,15.67-15.67c7-8.62,1.18-11,1.18-11-17.24-1.18-29.39-12.14-29.39-12.14-2-27-20-21.16-20-21.16-21.16-6.66-23.5,21.55-23.5,21.55-7.06,5.09-27.82,16.06-27.82,16.06-7.44,2-2,8.23-2,8.23,4.31,5.48,15.28,8.22,15.28,8.22-7.05,5.49-2.35,15.67-2.35,15.67-12.54,2-15.67,13.72-15.67,13.72-1.18,3.91-.39,19.59-.39,19.59,1.17,12.14-1.57,44.27-1.57,44.27s5.09-12.15-.39,1.56-3.92,45.06-3.92,45.06c-1.18,16.06-5.49,42.31-5.49,42.31a20.27,20.27,0,0,0-1.17,8.23c2.74,3.91,3.52,13.32,3.52,13.32.79,12.93-9,43.09-9,43.09-5.87,3.92-9.79,18.42-9.79,18.42,1.17,21.54-4.7,32.9-4.7,32.9-8.62-4.3-2,7.84-2,7.84-14.89,12.54-.39,32.13-.39,32.13,31.34,17.63,56.41-3.14,56.41-3.14,3.53-6.66-1.56-64.64-1.56-64.64,5.48-9-9.8-21.55-9.8-21.55,1.57-4.7-2.35-9.4-2.35-9.4,0-7.84-3.92-39.57-3.92-39.57,2.35-1.18-1.56-12.15-1.56-12.15.78-3.52-1.18-18-1.18-18-2-12.92,9-40.35,9-40.35,4.7,15.67-2.74,49.36-2.74,49.36-5.49,10.58,2,11.76,2,11.76l.78,7.05,3.92.39c0,7.05,3.92,7.84,3.92,7.84,1.17,6.26,7.44,63.07,7.44,63.07-3.52,3.92,2.35,14.89,2.35,14.89,2.75,5.48,8.23,18.81,8.23,18.81.78,5.48-.39,23.11-.39,23.11-4.31,17.24,9.79,27.42,9.79,27.42l-1.56,5.49c-4.71,4.7-1.18,36-1.18,36-2.35,3.92.39,7.84.39,7.84,11.36,5.09,24.29-.79,24.29-.79,2.74-4.3-1.57-10.18-1.57-10.18-3.91-5.49-5.48-32.91-5.48-32.91,1.18-7.84,11.36-45.84,11.36-45.84,5.49-17.63,3.14-52.11,3.14-52.11.78-5.09,1.17-17.23,1.17-17.23.78-9.4,13.32-47.41,13.32-47.41,4.7-.39,9-5.48,9-5.48l.39-5.88,2.35-2-2.35-10.19c1.57-8.22-1.17-35.26-1.17-35.26,4.31,7.06,15.28,39.58,15.28,39.58a37.16,37.16,0,0,0,.78,18.8c-2.35.39-2,4.31-2,4.31-6.66,4.31.4,3.13.4,3.13-7.06,7.06,1.56,3.92,1.56,3.92-1.56,2.74,2.74,1.57,2.74,1.57,9-3.14,9.41-9,9.41-9,.78-3.92,1.56-10.19,1.56-10.19C1184.76,440.74,1181.63,432.52,1181.63,432.52Zm-137.91,63.07c.39-5.09,8.62-32.51,8.62-32.51l2,25.07C1051.16,488.54,1043.72,495.59,1043.72,495.59Zm18.81-5.48c-1.57-1.18-3.53-2.74-3.53-2.74l-.39-22.73C1064.88,471.7,1064.09,491.28,1062.53,490.11Zm47.79-9.4s-.78-3.92-.39-12.54c0,0,2-13.32,3.92-17.63C1113.85,450.54,1115.42,472.09,1110.32,480.71Z"/><g id="girl2"><line id="_Path_" data-name="&lt;Path&gt;" class="cls-3" x1="990.28" y1="427.18" x2="990.28" y2="427.18"/><path id="_Compound_Path_" data-name="&lt;Compound Path&gt;" class="cls-3" d="M999.82,409.69c0-4.77-2.39-10.73-2.39-10.73A94.67,94.67,0,0,1,996.24,386c-2.78-24.65-7-35-7-35-2.18-4.18-2.18-6.56-3.77-11.53a7.39,7.39,0,0,1-.23-.84c-1.24-5.21-.17-14.47-.17-14.47,3.38-3.18-1.19-12.33-1.19-12.33-.2-1.79-2.19-19.08-2.19-19.08-1-8.35-12.53-10.34-12.53-10.34l4-.2c4-.2,1.79-2.78,1.79-2.78A11.87,11.87,0,0,1,971.9,277l.29-.32c2.78-3.18,5.17,5.56,5.56-4.18,0-.27,0-.54,0-.79,0-8.85-6.18-7.16-6.18-7.16-1.19-2.19,2.58-3.58,2.58-3.58,13.52-9.94-3.18-13.91-3.18-13.91.2-3.38-2.38-3.18-2.38-3.18C974.17,231,963.24,229,963.24,229c-.6-3.58-6.36-3.38-6.36-3.38.2-4.38-6.16-5.17-6.16-5.17-7.36-5.37-10.34-.2-10.34-.2L938,221c-5,.2-11.73,10.14-11.73,10.14-2.38,3-5.37,6.17-5.37,6.17-4.18,7.15-2.8,15.7-2.8,15.7-.39,1.39-2.8,4-2.8,4-1.39,1.79-4.6,2-4.6,2-6.57,4-4.65,17.5-4.65,17.5-7.16,3-7.71,14.91-7.71,14.91L870,319.64c-8.35,8.94-9.15,17.29-9.15,17.29-1.39,3.18,5.77,4,5.77,4,4.57,2,15.5,9.74,15.5,9.74,7.76,7,34.79,16.1,34.79,16.1C906.39,383.25,904,437.12,904,437.12l6.36,1,1.2,2.78,3.17.4,5.17,42.54c-1.49,7-2.09,16.73-2.29,21.13.1-3,.16-6.76-.69,3.12-1.19,13.92,4.77,32.81,4.77,32.81a223,223,0,0,0,7.95,24.64,41.58,41.58,0,0,1,.2,14.12c-.79,5.77.2,15.11.2,15.11a19.94,19.94,0,0,1-2,8.94c-1.4,7.36,3.57,10.14,3.57,10.14,4.77,4.37,15.71,1.59,15.71,1.59,1-1.39.59-6.16.59-6.16a12.63,12.63,0,0,0-1.39-3.18,23.11,23.11,0,0,1-2-7.75c-.39-4.58-1.59-15.51-1.59-15.51-2.58-8.55-5.36-19.48-5.36-19.48C936,556.2,939,531.55,939,531.55c-.4-12.92-1.79-32.6.2-38.17q.12-.36.24-.78c1.76-6.25,1.94-22.28,1.94-22.28,1.39-7,3-24.65,3-24.65l3.38.2.79,1.79,6,1.39c2.79,3.78,6,39.36,6,39.36,1,10.74-.4,13.72-.4,13.72-3.38,7.75-3.58,19.08-3.58,19.08-.2,8.15-.2,29.23-.2,29.23.2,15.5-2.18,21.67-2.18,21.67-.6,3.77-4.58,9.34-4.58,9.34-4.37,6.36-2.38,6.36-2.38,6.36.6,5,2.18,14.91,2.18,14.91,0,5.76-.59,11.73-.59,11.73,3.78,4.37,12.32,3.18,12.32,3.18,10.94-.8,5.17-9,5.17-9-4-7.95,1.39-42.74,1.39-42.74,1.39-6.56,8-30.61,8-30.61,3.77-10.93,5-26.44,5-26.44-.8-5,.19-13.72.19-13.72,1.59-5.37,1-21.07,1-21.07,3.78-9,4-25.25,4-25.25,1.79-.59,6.17,1.59,5.17-1.39a7.62,7.62,0,0,1-.2-.95c-1.69-9.2-10.13-76.38-10.13-76.38.79,2.58,8.35,24.85,8.35,24.85,2.18,8.75.59,11.53.59,11.53-.59,4-1.79,10.34-1.79,10.34-.2,7.55.66,9.74.66,9.74.59,3.18,1.65-.6,1.65-.6v.6c0-.6.63-5,.63-5,1.2-4.57,3.75-1,3.75-1,.8,2,0,5,0,5a5.37,5.37,0,0,1-3.17,2.79c-2-1-1.18,2-1.18,2l2.59,1-1.79,1.39c-3.18,1,2.39,2,2.39,2l4.37-3.18,2.39-.6L1003.4,419C1002.4,416.45,999.82,409.69,999.82,409.69Zm-86.48-53.48-31.61-22.06s7.76-6.56,12.53-11.33c0,0,6-6.56,9.54-8.95,0,0,6-13.12,10.74,1.79,0,0,3,10.74,7.75,17.89,0,0,4.77,8.35,4.77,14.91C927.06,348.46,917.52,353.83,913.34,356.21Z"/></g><g id="_Group_" data-name="&lt;Group&gt;"><path id="_Compound_Path_2" data-name="&lt;Compound Path&gt;" class="cls-3" d="M1329.7,614.36c-2-3.13-5.08-11.72-5.08-11.72-2-5.38-14.45-58.21-14.45-58.21-2-11.72-12.5-38.67-12.5-38.67a25.83,25.83,0,0,1-2.35-9.77c2.74-14.06-.39-44.92-.39-44.92l1.57-1.17c1.56-6.25-1.18-38.28-1.18-38.28-.39-4.3,2.35-3.13,2.35-3.13,5.08,4.69,5.47,1.17,5.47,1.17l7-6.64-1.17-2.73c1.17-3.52,9-10.94,9-10.94,3.91-4.3,1.56-8.2,2-9.38,4.69-14.06,1.57-34.37,1.57-34.37,2-34.77-7.82-42.19-7.82-42.19-5.86-4.69-24.22-13.28-24.22-13.28a16.72,16.72,0,0,1-2.73-14.85c5.86-8.59.78-21.68.78-21.68-2-15.43-14.84-17-14.84-17-4.74-4.25-12.7.58-17.53,6.74a31.57,31.57,0,0,0-6,11.86c-10.69,22.71-30,5.72-30,5.72,8.06,8.79,21.39,6.3,21.39,6.3-4,9.08-24.61,9.37-24.61,9.37,9.08,2.49,20.65-3.37,20.65-3.37a23,23,0,0,1-14.5,12.16c-10.69,1.32-20.36,11-20.36,10.55s-1.61,2.63-1.61,2.63l1.17-.73c5.57-8.06,21.53-10.84,21.53-10.84-3.22,2.93-11,12.16-11,12.16,4.4-5.27,12.16-6.45,12.16-6.45a11.3,11.3,0,0,1-4.54,3.67c-3.37,1.46-10.69,7.32-10.69,7.32-5.42,6.45-3.52,11-3.52,11a13.92,13.92,0,0,1,.88-4.4,15.61,15.61,0,0,1,5.86-7,46.75,46.75,0,0,0,11.14-6c4.83-2.93,19.19-17.58,19.19-17.58a20.4,20.4,0,0,1-1.91,6,83.34,83.34,0,0,0-8.35,10.7l-2,3.81c-.59,4.68-12.74,4.54-12.74,4.54,6.73,1.61,9.52-.88,9.52-.88-2.35,5.56-14.07,7.76-14.07,7.76,11.43-.14,20.07-11.72,20.07-11.72-.88,1.47-4.1,7-4.1,7-3.66,4.11-5.86,5.28-5.86,5.28a20.19,20.19,0,0,1-7.47,3.07c13.18-.14,19.34-16.11,19.34-16.11a13.55,13.55,0,0,1,3.66-4.35l.78,1.56c-2.34,2.74-7,10.55-7,10.55-5.47,3.13-6.64,14.06-6.64,14.06-2.34,7.43-2.73,28.91-2.73,28.91.39,6.25-5.47,23.05-5.47,23.05L1212.12,387l-3.52,8.6-1.56,1.56-3.12,7.81c-2.74,4.69.78,7,.78,7l4.68,2.35-.78,3.91c-3.51,4.68-1.56,7.81-1.56,7.81-.39,3.9-3.12,18-3.12,18l3.9,12.11,6.25-2,.78-5.86,1.18,6.26,5.46-1.18,4.69,28.52c1.17,9.77.39,30.86.39,30.86,0,11.33,2.35,39.46,2.35,39.46,1.56,10.93,2.73,35.15,2.73,35.15.78,9-.78,14.46-.78,14.46-2.35,5.07-3.52,14.06-3.52,14.06,2.35,7.42,8.21,6.64,8.21,6.64,8.59,0,11.32-6.25,11.32-6.25l-.39-6.25,2.35-3.52c1.56-7-3.52-30.86-3.52-30.86-1.56-8.59,1.17-33.59,1.17-33.59,1.18-7.42,1.57-37.89,1.57-37.89,1.17-7,.78-23.83.78-23.83-1.17-9,2.34-33.6,2.34-33.6l7.82-1.17c1.17,1.95,10.54,30.47,10.54,30.47,2.35,10.94,5.86,31.25,5.86,31.25,1.17,8.6,10.55,24.61,10.55,24.61,2,5.86,1.56,8.6,1.56,8.6l7.81,21.48c2.74,9,9.77,23,9.77,23a53.88,53.88,0,0,1,3.52,17.58c1.56,7,.39,7.81.39,7.81,0,3.52,3.12,5.86,3.12,5.86,2.35,3.52,2,3.52,2,3.52,0,3.12-.39,6.64-.39,6.64l6.64,4.69c7.42,3.9,10.93-2.74,10.93-2.74C1334.78,623.73,1329.7,614.36,1329.7,614.36ZM1288.29,371c2.73-10.55,14.85-26.17,14.85-26.17-3.52,4.68-3.52,23.82-3.52,23.82l-1.17,6.25c-4.69,2.74-2,8.21-2,8.21l-7,5.08C1286.34,382.32,1288.29,371,1288.29,371Z"/></g></svg>