<svg xmlns="http://www.w3.org/2000/svg" viewBox="0 0 1921.913 2618.599">
  <defs>
    <style>
      .cls-1 {
        fill: #f53dff;
      }

      .cls-2 {
        fill: #cb03d6;
        opacity: 0.43;
      }

      .cls-3 {
        fill: #fff3f3;
      }
    </style>
  </defs>
  <g id="Group_310" data-name="Group 310" transform="translate(1.913 -1357.271)">
    <path id="Subtraction_13" data-name="Subtraction 13" class="cls-1" d="M2512.928-3636.528c-18.212,0-36.652-.7-54.808-2.095-18.287-1.4-36.737-3.531-54.836-6.334V-5079.2l422.2,204.872c21.149,10.262,41.92,21.65,61.738,33.846,19.526,12.018,38.6,25.111,56.685,38.916,17.849,13.623,35.167,28.266,51.475,43.525,16.122,15.084,31.635,31.125,46.108,47.675,14.34,16.4,28,33.679,40.585,51.365,12.5,17.562,24.246,35.931,34.9,54.6,10.607,18.575,20.387,37.876,29.068,57.367,8.66,19.445,16.423,39.524,23.074,59.679,6.487,19.657,12.064,39.835,16.577,59.976,4.525,20.194,8.086,40.822,10.584,61.31,2.511,20.593,4.008,41.527,4.447,62.219a623.07,623.07,0,0,1-1.835,62.7,622.811,622.811,0,0,1-8.263,62.76A626.183,626.183,0,0,1,3175.794-4116a634.746,634.746,0,0,1-21.555,61.6,649.772,649.772,0,0,1-28.42,60.376c-7.511,14.04-15.633,27.97-24.138,41.405-8.415,13.292-17.427,26.447-26.785,39.1-9.266,12.527-19.114,24.888-29.271,36.741-10.063,11.744-20.693,23.3-31.593,34.333A678.949,678.949,0,0,1,2867.688-3730.2a709.187,709.187,0,0,1-170.5,69.714A721.075,721.075,0,0,1,2512.928-3636.528Z" transform="translate(-2403.284 7612.397)"/>
    <path id="Subtraction_12" data-name="Subtraction 12" class="cls-2" d="M107.17,1442.674c-17.8,0-35.828-.7-53.572-2.095-17.876-1.4-35.909-3.532-53.6-6.334V0L412.67,204.872A687.136,687.136,0,0,1,472.9,238.644,673.137,673.137,0,0,1,528.2,277.465c17.42,13.591,34.322,28.2,50.237,43.413,15.736,15.045,30.881,31.043,45.013,47.549,14,16.354,27.338,33.589,39.638,51.228,12.213,17.514,23.689,35.834,34.11,54.451,10.371,18.528,19.936,37.778,28.43,57.216,8.475,19.394,16.078,39.422,22.6,59.525,6.385,19.686,11.878,39.9,16.328,60.076,4.461,20.23,7.977,40.9,10.449,61.423,2.484,20.629,3.973,41.6,4.426,62.342.456,20.886-.129,42.026-1.739,62.831-1.624,21-4.332,42.158-8.047,62.893a638.257,638.257,0,0,1-14.5,62.525,644.534,644.534,0,0,1-21.092,61.729,656.747,656.747,0,0,1-27.829,60.5c-7.343,14.042-15.281,27.973-23.594,41.405-8.225,13.292-17.034,26.447-26.181,39.1-9.056,12.526-18.682,24.888-28.61,36.741-9.838,11.746-20.228,23.3-30.88,34.333A665.583,665.583,0,0,1,453.922,1349a684.409,684.409,0,0,1-166.653,69.714A689.807,689.807,0,0,1,107.17,1442.674Z" transform="translate(0.001 2531.193)"/>
    <path id="Subtraction_11" data-name="Subtraction 11" class="cls-3" d="M-1602-6099.642h-.057c-19.349,0-38.913-.458-58.149-1.362-19.915-.935-40.041-2.374-59.816-4.276-20.43-1.965-41.067-4.48-61.34-7.477-20.906-3.09-42.008-6.779-62.722-10.965-21.333-4.311-42.854-9.27-63.963-14.739-21.707-5.624-43.6-11.949-65.062-18.8-22.054-7.039-44.266-14.826-66.02-23.147-22.335-8.542-44.822-17.89-66.836-27.782-30.667-13.78-61.3-26.771-91.061-38.615-28.662-11.407-57.274-22.053-85.042-31.643-26.7-9.221-53.326-17.71-79.142-25.233-24.762-7.216-49.445-13.738-73.363-19.385-22.866-5.4-45.645-10.143-67.7-14.1-21.01-3.769-41.925-6.923-62.164-9.375-19.207-2.327-38.3-4.081-56.744-5.213-17.437-1.07-34.746-1.613-51.446-1.613-20.967,0-41.583.854-61.275,2.538-17.9,1.53-35.44,3.781-52.133,6.688a464.354,464.354,0,0,0-78.042,20.3c-9.3,3.367-18.218,7.014-26.507,10.84-6.632,3.062-12.877,6.243-18.563,9.457a126.669,126.669,0,0,0-14.492,9.226L-2919.3-7942c.017.029,2.5,4.55,7.612,12.435,4.7,7.254,12.632,18.9,23.729,33.206,12.476,16.079,26.333,32.171,41.185,47.831a721.992,721.992,0,0,0,59.979,56.306A785.37,785.37,0,0,0-2605.1-7678.77c19.228,8.672,39.166,16.766,59.261,24.056,21.154,7.675,43.067,14.671,65.131,20.8,23.14,6.423,47.085,12.065,71.168,16.768,25.176,4.917,51.208,8.944,77.372,11.972,26.572,3.075,54.383,5.254,85.022,6.664,27.374,1.259,56.425,1.872,88.812,1.872,60.614,0,121.856-2.12,186.694-4.365h.021l2.763-.1h.048c63.336-2.192,128.828-4.459,194.729-4.459,40.995,0,77.868.88,112.727,2.69,19.11.993,37.857,2.29,55.719,3.854,18.848,1.651,37.373,3.657,55.061,5.962,18.531,2.415,36.777,5.24,54.231,8.4,18.179,3.288,36.088,7.043,53.23,11.16,17.774,4.269,35.289,9.063,52.057,14.25,17.332,5.361,34.394,11.305,50.714,17.667,16.827,6.559,33.379,13.763,49.2,21.411,16.267,7.865,32.252,16.438,47.511,25.482,15.659,9.281,31.018,19.334,45.652,29.88,14.994,10.806,29.671,22.449,43.622,34.606,14.272,12.437,28.208,25.779,41.421,39.658,13.5,14.18,26.636,29.333,39.047,45.038,12.666,16.027,24.947,33.1,36.5,50.745,11.779,17.986,23.147,37.089,33.787,56.779.575,1.063,1.2,2.23,1.866,3.468v984.494c-1.2,2.084-1.862,3.174-1.866,3.182-.154.091-15.651,9.258-44.289,23-16.7,8.013-34.458,15.944-52.778,23.573-22.9,9.537-46.758,18.629-70.9,27.023a1343.434,1343.434,0,0,1-189.3,50.6c-18.542,3.529-37.37,6.7-55.962,9.417-19.571,2.862-39.417,5.3-58.987,7.261-20.527,2.052-41.318,3.624-61.8,4.674C-1559.019-6100.2-1580.683-6099.643-1602-6099.642Z" transform="translate(2921.727 9299.271)"/>
    <g id="_Group_" data-name="&lt;Group&gt;" transform="translate(-422.114 2714.095)">
      <path id="_Compound_Path_" data-name="&lt;Compound Path&gt;" class="cls-3" d="M900.553,727.211c-3.26-10.267-7.494-30.239-7.494-30.239-2.136-7.494-7.494-31.288-7.494-31.288a103.236,103.236,0,0,0-11.241-44.778c-3.222-6.482-5.4-30.763-5.4-30.763-2.7-19.41,2.173-56.618,2.173-56.618,1.611-14.576-3.222-14.576-3.222-14.576,2.136-12.4-14.576-30.764-14.576-30.764A62.838,62.838,0,0,0,874.886,466.6c9.705-11.878,1.611-14.988,1.611-14.988A73.628,73.628,0,0,1,836.029,434.9c-2.7-37.246-27.5-29.152-27.5-29.152-29.152-9.18-32.375,29.677-32.375,29.677-9.705,7.007-38.295,22.108-38.295,22.108-10.267,2.7-2.735,11.241-2.735,11.241,5.958,7.494,21.058,11.241,21.058,11.241-9.7,7.494-3.222,21.583-3.222,21.583a27.279,27.279,0,0,0-21.583,18.735c-1.611,5.4-.562,26.979-.562,26.979,1.649,16.712-2.136,60.965-2.136,60.965s7.007-16.712-.562,2.173-5.621,62.389-5.621,62.389C720.882,694.986,715,731.108,715,731.108a27.509,27.509,0,0,0-1.611,11.241c3.747,5.4,4.833,18.323,4.833,18.323,1.087,17.836-12.4,59.354-12.4,59.354-8.094,5.4-13.489,25.368-13.489,25.368,1.611,29.677-6.482,45.3-6.482,45.3-11.878-5.92-2.7,10.792-2.7,10.792-20.5,17.274-.525,44.253-.525,44.253a70.219,70.219,0,0,0,77.826-4.347c4.871-9.18-2.135-89.031-2.135-89.031,7.494-12.4-13.489-29.677-13.489-29.677a15.326,15.326,0,0,0-3.26-12.927c0-10.792-5.4-54.52-5.4-54.52,3.26-1.611-2.136-16.712-2.136-16.712,1.049-4.871-1.611-24.806-1.611-24.806-2.7-17.8,12.4-55.569,12.4-55.569,6.445,21.583-3.747,67.972-3.747,67.972-7.494,14.576,2.7,16.187,2.7,16.187l1.086,9.7,5.4.525c0,9.742,5.4,10.792,5.4,10.792,1.611,8.656,10.229,86.895,10.229,86.895-4.834,5.4,3.26,20.5,3.26,20.5,3.747,7.494,11.241,25.892,11.241,25.892a270.15,270.15,0,0,1-.525,31.813C773.9,952.186,793.35,966.2,793.35,966.2l-2.173,7.494c-6.482,6.482-1.611,49.649-1.611,49.649a10.378,10.378,0,0,0,.524,10.754c15.663,7.044,33.461-1.049,33.461-1.049,3.747-5.958-2.173-14.052-2.173-14.052-5.4-7.494-7.494-45.3-7.494-45.3,1.611-10.792,15.625-63.138,15.625-63.138,7.494-24.281,4.309-71.757,4.309-71.757,1.087-7.007,1.649-23.719,1.649-23.719,1.049-12.965,18.323-65.312,18.323-65.312,6.482-.525,12.4-7.494,12.4-7.494l.562-8.094,3.222-2.7-3.222-14.052c2.136-11.241-1.611-48.712-1.611-48.712,5.92,9.7,21.021,54.483,21.021,54.483a51.261,51.261,0,0,0,1.086,25.892c-3.222.525-2.7,5.921-2.7,5.921-9.18,5.958.525,4.347.525,4.347-9.7,9.7,2.173,5.4,2.173,5.4-2.173,3.747,3.747,2.136,3.747,2.136,12.4-4.309,12.927-12.4,12.927-12.4,1.087-5.4,2.173-14.014,2.173-14.014C904.862,738.528,900.553,727.211,900.553,727.211Zm-189.9,86.857c.525-7.007,11.841-44.965,11.841-44.965l2.7,34.511C720.882,804.364,710.653,814.069,710.653,814.069Zm25.892-7.494c-2.173-1.611-4.871-3.747-4.871-3.747l-.525-31.288c8.618,9.63,7.532,36.572,5.4,34.96Zm65.8-12.927a83,83,0,0,1-.525-17.274,147.534,147.534,0,0,1,5.4-24.281s2.173,29.6-4.871,41.48Z" transform="translate(-27 -32.44)"/>
    </g>
    <ellipse id="Ellipse_1" data-name="Ellipse 1" class="cls-3" cx="125.5" cy="12.5" rx="125.5" ry="12.5" transform="translate(206 3716)"/>
  </g>
</svg>
