<svg xmlns="http://www.w3.org/2000/svg" viewBox="0 0 1921.913 2714.729">
  <defs>
    <style>
      .cls-1 {
        fill: #fff3f3;
      }
    </style>
  </defs>
  <g id="Group_310" data-name="Group 310" transform="translate(1.913 -1357.271)">
    <path id="Subtraction_11" data-name="Subtraction 11" class="cls-1" d="M-1602-6099.642h-.057c-19.349,0-38.913-.458-58.149-1.362-19.915-.935-40.041-2.374-59.816-4.276-20.43-1.965-41.067-4.48-61.34-7.477-20.906-3.09-42.008-6.779-62.722-10.965-21.333-4.311-42.854-9.27-63.963-14.739-21.707-5.624-43.6-11.949-65.062-18.8-22.054-7.039-44.266-14.826-66.02-23.147-22.335-8.542-44.822-17.89-66.836-27.782-30.667-13.78-61.3-26.771-91.061-38.615-28.662-11.407-57.274-22.053-85.042-31.643-26.7-9.221-53.326-17.71-79.142-25.233-24.762-7.216-49.445-13.738-73.363-19.385-22.866-5.4-45.645-10.143-67.7-14.1-21.01-3.769-41.925-6.923-62.164-9.375-19.207-2.327-38.3-4.081-56.744-5.213-17.437-1.07-34.746-1.613-51.446-1.613-20.967,0-41.583.854-61.275,2.538-17.9,1.53-35.44,3.781-52.133,6.688a464.354,464.354,0,0,0-78.042,20.3c-9.3,3.367-18.218,7.014-26.507,10.84-6.632,3.062-12.877,6.243-18.563,9.457a126.669,126.669,0,0,0-14.492,9.226L-2919.3-7942c.017.029,2.5,4.55,7.612,12.435,4.7,7.254,12.632,18.9,23.729,33.206,12.476,16.079,26.333,32.171,41.185,47.831a721.992,721.992,0,0,0,59.979,56.306A785.37,785.37,0,0,0-2605.1-7678.77c19.228,8.672,39.166,16.766,59.261,24.056,21.154,7.675,43.067,14.671,65.131,20.8,23.14,6.423,47.085,12.065,71.168,16.768,25.176,4.917,51.208,8.944,77.372,11.972,26.572,3.075,54.383,5.254,85.022,6.664,27.374,1.259,56.425,1.872,88.812,1.872,60.614,0,121.856-2.12,186.694-4.365h.021l2.763-.1h.048c63.336-2.192,128.828-4.459,194.729-4.459,40.995,0,77.868.88,112.727,2.69,19.11.993,37.857,2.29,55.719,3.854,18.848,1.651,37.373,3.657,55.061,5.962,18.531,2.415,36.777,5.24,54.231,8.4,18.179,3.288,36.088,7.043,53.23,11.16,17.774,4.269,35.289,9.063,52.057,14.25,17.332,5.361,34.394,11.305,50.714,17.667,16.827,6.559,33.379,13.763,49.2,21.411,16.267,7.865,32.252,16.438,47.511,25.482,15.659,9.281,31.018,19.334,45.652,29.88,14.994,10.806,29.671,22.449,43.622,34.606,14.272,12.437,28.208,25.779,41.421,39.658,13.5,14.18,26.636,29.333,39.047,45.038,12.666,16.027,24.947,33.1,36.5,50.745,11.779,17.986,23.147,37.089,33.787,56.779.575,1.063,1.2,2.23,1.866,3.468v984.494c-1.2,2.084-1.862,3.174-1.866,3.182-.154.091-15.651,9.258-44.289,23-16.7,8.013-34.458,15.944-52.778,23.573-22.9,9.537-46.758,18.629-70.9,27.023a1343.434,1343.434,0,0,1-189.3,50.6c-18.542,3.529-37.37,6.7-55.962,9.417-19.571,2.862-39.417,5.3-58.987,7.261-20.527,2.052-41.318,3.624-61.8,4.674C-1559.019-6100.2-1580.683-6099.643-1602-6099.642Z" transform="translate(2921.727 9299.271)"/>
    <rect id="Rectangle_23" data-name="Rectangle 23" class="cls-1" width="1920" height="1263" transform="translate(0 2809)"/>
  </g>
</svg>
